<svg width="72" height="72" viewBox="0 0 72 72" xmlns="http://www.w3.org/2000/svg" xmlns:xlink="http://www.w3.org/1999/xlink" id="Gradient" overflow="hidden"><style>
.MsftOfcThm_Text2_Fill_v2 {
 fill:#165C7D; 
}
</style>
<defs><linearGradient x1="12.246" y1="66.8807" x2="59.754" y2="19.3727" gradientUnits="userSpaceOnUse" id="linear-gradient"><stop offset="0" stop-color="#FF9F00"/><stop offset="0.05089" stop-color="#FE9900"/><stop offset="0.466323" stop-color="#FD7204"/><stop offset="0.797112" stop-color="#FD5907"/><stop offset="1" stop-color="#FD5108"/></linearGradient></defs><path d="M25.875 19.125C25.875 24.7083 30.4167 29.25 36 29.25 41.5833 29.25 46.125 24.7083 46.125 19.125 46.125 13.5417 41.5833 9 36 9 30.4167 9 25.875 13.5417 25.875 19.125ZM43.875 19.125C43.875 23.4668 40.3418 27 36 27 31.6582 27 28.125 23.4668 28.125 19.125 28.125 14.7832 31.6582 11.25 36 11.25 40.3418 11.25 43.875 14.7832 43.875 19.125ZM24.75 25.875C24.75 21.5332 21.2168 18 16.875 18 12.5332 18 9 21.5332 9 25.875 9 30.2168 12.5332 33.75 16.875 33.75 21.2168 33.75 24.75 30.2168 24.75 25.875ZM16.875 31.5C13.7736 31.5 11.25 28.9775 11.25 25.875 11.25 22.7725 13.7736 20.25 16.875 20.25 19.9764 20.25 22.5 22.7725 22.5 25.875 22.5 28.9775 19.9764 31.5 16.875 31.5ZM47.25 25.875C47.25 30.2168 50.7832 33.75 55.125 33.75 59.4668 33.75 63 30.2168 63 25.875 63 21.5332 59.4668 18 55.125 18 50.7832 18 47.25 21.5332 47.25 25.875ZM60.75 25.875C60.75 28.9775 58.2264 31.5 55.125 31.5 52.0236 31.5 49.5 28.9775 49.5 25.875 49.5 22.7725 52.0236 20.25 55.125 20.25 58.2264 20.25 60.75 22.7725 60.75 25.875ZM53.0398 46.0986 44.0022 63 42.8049 63 42.8049 40.6956 45.0549 40.6956 45.0549 56.261 50.4602 46.1514 43.1466 33.7192 28.8534 33.7192 21.5398 46.1514 26.9451 56.261 26.9451 40.6956 29.1951 40.6956 29.1951 63 27.9978 63 18.9602 46.0986 27.5658 31.4692 44.4342 31.4692 53.0398 46.0986ZM10.1876 36 16.875 36 16.875 38.25 11.4752 38.25 4.79883 49.6011 9.57898 58.5417 9.57898 44.5781 11.829 44.5781 11.829 65.25 10.6153 65.25 2.21924 49.5483 10.1876 36ZM69.7808 49.5483 61.3847 65.25 60.171 65.25 60.171 44.5781 62.421 44.5781 62.421 58.5417 67.2012 49.6011 60.5248 38.25 55.125 38.25 55.125 36 61.8124 36 69.7808 49.5483Z" class="MsftOfcThm_Text2_Fill_v2" fill="#165C7D"/></svg>