<svg width="72" height="72" viewBox="0 0 72 72" xmlns="http://www.w3.org/2000/svg" xmlns:xlink="http://www.w3.org/1999/xlink" id="Gradient" overflow="hidden"><style>
.MsftOfcThm_Background1_Fill_v2 {
 fill:#FFFFFF; 
}
</style>
<defs><linearGradient x1="14.9963" y1="54.3937" x2="59.58" y2="9.81004" gradientUnits="userSpaceOnUse" id="linear-gradient"><stop offset="0" stop-color="#FF9F00"/><stop offset="0.05089" stop-color="#FE9900"/><stop offset="0.466323" stop-color="#FD7204"/><stop offset="0.797112" stop-color="#FD5907"/><stop offset="1" stop-color="#FD5108"/></linearGradient></defs><path d="M19.9238 12.6788 6.46875 35.9887 12.1388 45.7987 13.4213 43.5487 9.0563 35.9887 21.2289 14.9288 41.6588 14.9288 42.9638 12.6788 19.9238 12.6788ZM46.8563 12.6788 45.5738 14.9288 52.5488 27.0113 53.8314 24.7387 46.8563 12.6788ZM59.0289 33.7387 57.7238 35.9887 54.7763 41.0961 45.5738 57.0712 38.4638 57.0712 43.0988 49.2413 35.8539 36.8663 21.3639 36.8663 14.0738 49.1737 19.9238 59.3212 46.8563 59.3212 60.3338 35.9887 59.0289 33.7387ZM34.0763 44.5612 34.0763 57.0712 22.8713 57.0712 22.8713 44.5612 20.6213 44.5612 20.6213 55.9688 16.7289 49.0838 22.6463 39.1163 34.5714 39.1163 40.4889 49.2413 36.3263 56.2836 36.3263 44.5612 34.0763 44.5612ZM28.5863 17.7637C23.8163 17.7637 19.9013 21.6562 19.9013 26.4488 19.9013 31.2413 23.8163 35.1337 28.5863 35.1337 33.3788 35.1337 37.2713 31.2413 37.2713 26.4488 37.2713 21.6562 33.3788 17.7637 28.5863 17.7637ZM28.5863 32.8837C25.0538 32.8837 22.1513 30.0037 22.1513 26.4488 22.1513 22.9162 25.0538 20.0137 28.5863 20.0137 32.1413 20.0137 35.0213 22.9162 35.0213 26.4488 35.0213 30.0037 32.1413 32.8837 28.5863 32.8837ZM63.5963 14.6363 51.4238 35.6287 44.9664 24.4237 42.3563 24.4237 49.8488 37.3612 53.0213 37.3387 65.5312 15.7613 63.5963 14.6363Z" class="MsftOfcThm_Background1_Fill_v2" fill="#FFFFFF"/></svg>