<svg width="72" height="72" viewBox="0 0 72 72" xmlns="http://www.w3.org/2000/svg" xmlns:xlink="http://www.w3.org/1999/xlink" id="Gradient" overflow="hidden"><style>
.MsftOfcThm_Background1_Fill_v2 {
 fill:#FFFFFF; 
}
</style>
<defs><linearGradient x1="16.4806" y1="57.7694" x2="62.7006" y2="11.5494" gradientUnits="userSpaceOnUse" id="linear-gradient"><stop offset="0" stop-color="#FF9F00"/><stop offset="0.05089" stop-color="#FE9900"/><stop offset="0.466323" stop-color="#FD7204"/><stop offset="0.797112" stop-color="#FD5907"/><stop offset="1" stop-color="#FD5108"/></linearGradient></defs><path d="M50.2888 63 64.5787 38.25 50.9391 14.6254 51.515 13.6279 57.5848 12.0015 55.5469 4.39563 47.941 6.43359 49.5669 12.5013 45.093 20.25 25.608 20.25 15.2161 38.25 25.608 56.25 46.392 56.25 56.7839 38.25 48.99 24.75 47.6912 26.9995 54.1868 38.25 45.0934 54 26.9066 54 17.8132 38.25 26.9066 22.5 43.794 22.5 34.7003 38.25 37.2989 38.25 41.8457 30.375 46.3924 38.25 41.1965 47.25 30.8035 47.25 25.6076 38.25 30.8035 29.25 36.0001 29.25 37.2991 27 29.5049 27 23.0098 38.25 29.5049 49.5 42.4951 49.5 48.9902 38.25 43.145 28.1247 49.6398 16.8757 61.9813 38.2505 48.9902 60.75 23.0098 60.75 10.0184 38.25 23.0098 15.75 43.7943 15.75 45.0932 13.5 21.7112 13.5 7.42127 38.25 21.7112 63 50.2888 63ZM50.6964 8.02441 53.9561 7.151 54.8295 10.4106 51.5698 11.2841 50.6964 8.02441Z" class="MsftOfcThm_Background1_Fill_v2" fill="#FFFFFF"/></svg>