<svg viewBox="0 0 32 32" xmlns="http://www.w3.org/2000/svg" xmlns:xlink="http://www.w3.org/1999/xlink" id="Artwork" overflow="hidden"><style>
.MsftOfcResponsive_Fill_00b050 {
 fill:#00B050; 
}
</style>
<path d="M26 11 21 11 21 5C21 3.3457 19.6543 2 18 2L13 2 13 8.6797 8.4854 15 2 15 2 28 25.5801 28 26.723 26 10 26 10 16.3205 15 9.3203 15 4 18 4C18.5518 4 19 4.4487 19 5L19 13 26 13C27.1025 13 28 13.897 28 15L28 19.7344 25.5627 24 27.866 24 30 20.2656 30 15C30 12.7944 28.2061 11 26 11ZM4 26 4 17 8 17 8 26 4 26Z" class="MsftOfcResponsive_Fill_00b050" fill="#00B050"/></svg>