<svg viewBox="0 0 96 96" xmlns="http://www.w3.org/2000/svg" xmlns:xlink="http://www.w3.org/1999/xlink" id="Icons_VennDiagram_M" overflow="hidden"><g id="Icons"><path d="M70.379 38.83C71.666 26.4704 62.6899 15.4077 50.3303 14.1207 37.9707 12.8337 26.908 21.8098 25.621 34.1694 25.4597 35.7187 25.4597 37.2806 25.621 38.83 14.1914 43.7065 8.87911 56.9252 13.7556 68.3548 18.6321 79.7844 31.8508 85.0967 43.2804 80.2202 44.9585 79.5042 46.5434 78.5867 48 77.488 57.9345 84.9472 72.0348 82.9406 79.494 73.0061 86.9532 63.0716 84.9466 48.9713 75.0121 41.5121 73.58 40.4368 72.0246 39.5364 70.379 38.83ZM27.5 36.5C27.5 25.1782 36.6782 16 48 16 59.3218 16 68.5 25.1782 68.5 36.5 68.5 37.038 68.46 37.566 68.419 38.093 61.4621 35.8389 53.8432 37.1147 48 41.512 42.1568 37.1147 34.5379 35.8389 27.581 38.093 27.54 37.566 27.5 37.038 27.5 36.5ZM55 59.5C54.9967 65.3992 52.4447 71.0092 48 74.888 43.5553 71.0092 41.0033 65.3992 41 59.5 41 58.962 41.04 58.434 41.081 57.907 45.5786 59.3643 50.4214 59.3643 54.919 57.907 54.96 58.434 55 58.962 55 59.5ZM48 57C45.7331 56.9957 43.4829 56.6131 41.342 55.868 42.1666 51.3087 44.5139 47.164 48 44.112 51.4861 47.164 53.8334 51.3087 54.658 55.868 52.5171 56.6131 50.2669 56.9957 48 57ZM39.435 55.1C33.3642 52.2957 29.0389 46.7112 27.842 40.132 34.0985 37.9485 41.0271 38.9584 46.4 42.837 42.8242 46.0726 40.3825 50.3716 39.435 55.1ZM49.6 42.837C54.9719 38.9597 61.8987 37.9499 68.154 40.132 66.9579 46.7104 62.6342 52.2947 56.565 55.1 55.6175 50.3715 53.1758 46.0726 49.6 42.837ZM34.5 80C23.1864 80.0078 14.0087 70.8427 14.0008 59.5292 13.9953 51.5205 18.6574 44.243 25.935 40.9 27.3966 48.1574 32.3237 54.2369 39.121 57.17 38.3791 64.2996 41.0832 71.3553 46.4 76.163 42.9339 78.6583 38.7709 80.0006 34.5 80ZM61.5 80C57.2291 80.0007 53.0661 78.6584 49.6 76.163 54.9168 71.3554 57.6209 64.2996 56.879 57.17 63.6763 54.2369 68.6034 48.1574 70.065 40.9 80.3458 45.6225 84.8517 57.7851 80.1292 68.0658 76.7862 75.3435 69.5087 80.0055 61.5 80Z"/></g></svg>