<svg width="72" height="72" viewBox="0 0 72 72" xmlns="http://www.w3.org/2000/svg" xmlns:xlink="http://www.w3.org/1999/xlink" id="Gradient" overflow="hidden"><style>
.MsftOfcThm_Text2_Fill_v2 {
 fill:#165C7D; 
}
</style>
<defs><linearGradient x1="7.875" y1="64.125" x2="52.5454" y2="19.4546" gradientUnits="userSpaceOnUse" id="linear-gradient"><stop offset="0" stop-color="#FF9F00"/><stop offset="0.05089" stop-color="#FE9900"/><stop offset="0.466323" stop-color="#FD7204"/><stop offset="0.797112" stop-color="#FD5907"/><stop offset="1" stop-color="#FD5108"/></linearGradient></defs><path d="M18 33.75 29.25 33.75 29.25 36 18 36 18 33.75ZM18 42.75 29.25 42.75 29.25 40.5 18 40.5 18 42.75ZM18 49.5 29.25 49.5 29.25 47.25 18 47.25 18 49.5ZM18 56.25 29.25 56.25 29.25 54 18 54 18 56.25ZM33.75 49.5 36 49.5 36 36 43.0594 36 44.635 33.75 33.75 33.75 33.75 49.5ZM58.5 54 58.5 65.25 51.4405 65.25 49.865 67.5 60.75 67.5 60.75 54 58.5 54ZM43.0594 67.5 11.25 67.5 11.25 4.5 37.5908 4.5 56.25 23.1592 56.25 33.75 60.75 33.75 60.75 49.5 58.5 49.5 58.5 36 49.865 36 51.4405 33.75 54 33.75 54 24.75 36 24.75 36 6.75 13.5 6.75 13.5 65.25 33.75 65.25 33.75 54 36 54 36 65.25 44.635 65.25 43.0594 67.5ZM38.25 22.5 52.4092 22.5 38.25 8.34082 38.25 22.5ZM54 40.5 40.5 40.5 40.5 42.75 54 42.75 54 40.5ZM54 47.25 40.5 47.25 40.5 49.5 54 49.5 54 47.25ZM40.5 56.25 54 56.25 54 54 40.5 54 40.5 56.25Z" class="MsftOfcThm_Text2_Fill_v2" fill="#165C7D"/></svg>