<svg viewBox="0 0 96 96" xmlns="http://www.w3.org/2000/svg" xmlns:xlink="http://www.w3.org/1999/xlink" id="Icons_BusinessGrowth_RTL" overflow="hidden"><style>
.MsftOfcThm_Text2_Fill_v2 {
 fill:#165C7D; 
}
</style>
<path d="M43.02 72.95 58.02 57.95 84.92 84.85 89.11 80.65 58.02 49.55 43.02 64.55 26.02 47.55 16.11 37.65 22.02 31.75 6.01 31.75 6.01 47.75 11.91 41.85 22.02 51.95 43.02 72.95Z" class="MsftOfcThm_Text2_Fill_v2" fill="#165C7D"/><circle cx="78.01" cy="20" r="5" class="MsftOfcThm_Text2_Fill_v2" fill="#165C7D"/><path d="M29.91 45.72 33.06 32.18 33.06 32.18 33.06 48.91 37.06 52.91 37.06 48 39.06 48 39.06 54.87 43.06 58.87 43.06 58.87 43.06 32.17 43.06 32.17 46.06 45.43C46.2608 46.3421 47.0661 46.9938 48 47L48 47C48.9533 47.0233 49.7905 46.3703 50 45.44L53 32.18 53 32.18 53 48.85 55.21 46.72 55.21 46.72C56.7713 45.1625 59.2987 45.1625 60.86 46.72L63.07 48.94 63.07 32.17 63.07 32.17 66 45 66.06 45.43C66.2608 46.3421 67.0661 46.9938 68 47L68 47C69.0415 47.0038 69.9115 46.2077 70 45.17L73 32.11 73 32.11 73 39.11 70 54 73 54 73 58.89 77 62.89 77 54 79 54 79 64.89 83 68.89 83 54 86 54 83 39.1 83 32 83 32 86 45.43C86.2054 46.3643 87.0437 47.0223 88 47L88.33 47 88.42 47C89.5333 46.7168 90.2062 45.5846 89.9229 44.4714 89.922 44.4676 89.921 44.4638 89.92 44.46L86.75 29.92C86.6555 29.4809 86.416 29.0864 86.07 28.8 84.8734 27.8586 83.519 27.1374 82.07 26.67 79.457 25.7801 76.623 25.7801 74.01 26.67 72.5628 27.1417 71.2091 27.8625 70.01 28.8 69.6566 29.0833 69.4098 29.4782 69.31 29.92L68 35.59 68 35.59 66.68 29.92C66.5855 29.4809 66.346 29.0864 66 28.8 61.2983 25.1293 54.7017 25.1293 50 28.8 49.6503 29.0848 49.4071 29.4795 49.31 29.92L48 35.78 48 35.78 46.74 29.92C46.6455 29.4809 46.406 29.0864 46.06 28.8 44.8634 27.8586 43.509 27.1374 42.06 26.67 39.447 25.7801 36.613 25.7801 34 26.67 32.5528 27.1417 31.1991 27.8625 30 28.8 29.6497 29.0826 29.4091 29.4788 29.32 29.92L26.54 42.42 28.83 44.71 29.83 45.71Z" class="MsftOfcThm_Text2_Fill_v2" fill="#165C7D"/><circle cx="38.02" cy="20" r="5" class="MsftOfcThm_Text2_Fill_v2" fill="#165C7D"/><circle cx="58.05" cy="20" r="5" class="MsftOfcThm_Text2_Fill_v2" fill="#165C7D"/></svg>