<svg width="72" height="72" viewBox="0 0 72 72" xmlns="http://www.w3.org/2000/svg" xmlns:xlink="http://www.w3.org/1999/xlink" id="Gradient" overflow="hidden"><style>
.MsftOfcThm_Text2_Fill_v2 {
 fill:#165C7D; 
}
</style>
<defs><linearGradient x1="2.57059" y1="64.7606" x2="60.7444" y2="6.58685" gradientUnits="userSpaceOnUse" id="linear-gradient"><stop offset="0" stop-color="#FF9F00"/><stop offset="0.05089" stop-color="#FE9900"/><stop offset="0.466323" stop-color="#FD7204"/><stop offset="0.797112" stop-color="#FD5907"/><stop offset="1" stop-color="#FD5108"/></linearGradient></defs><path d="M31.9838 10.9913C29.7787 10.9913 28.0013 12.7687 28.0013 14.9513 28.0013 17.1562 29.7787 18.9337 31.9838 18.9337 34.1662 18.9337 35.9662 17.1562 35.9662 14.9513 35.9662 12.7687 34.1662 10.9913 31.9838 10.9913ZM31.9838 16.6837C31.0387 16.6837 30.2513 15.9188 30.2513 14.9513 30.2513 14.0063 31.0387 13.2413 31.9838 13.2413 32.9288 13.2413 33.7162 14.0063 33.7162 14.9513 33.7162 15.9188 32.9288 16.6837 31.9838 16.6837ZM38.5538 62.6063 31.4437 50.2763 15.9188 50.2763 7.48128 64.8563 59.9962 64.8563 61.3012 62.6063 38.5538 62.6063ZM31.9162 62.6063 31.9162 58.6913 29.6662 58.6913 29.6662 62.6063 17.6962 62.6063 17.6962 58.6913 15.4462 58.6913 15.4462 62.6063 11.3963 62.6063 17.2238 52.5263 30.1388 52.5263 35.9437 62.6063 31.9162 62.6063ZM61.3012 12.8813 61.3012 7.14372 2.66624 7.14372 2.66624 64.8563 3.61121 64.8563 4.91624 62.6063 4.91624 22.7812 37.7213 22.7812 35.4037 26.8087 39.9262 34.6388 35.9437 41.5238 38.5312 41.5238 42.5138 34.6388 37.9913 26.8087 45.1913 14.3663 59.5687 14.3663 66.7462 26.8087 59.5687 39.2738 43.7287 39.2738 42.4237 41.5238 59.0512 41.5238 59.0512 59.2313 61.3012 59.2313 61.3012 40.7587 69.3338 26.8087 61.3012 12.8813ZM59.0512 12.1163 43.8863 12.1163 39.0263 20.5312 4.91624 20.5312 4.91624 9.39372 59.0512 9.39372 59.0512 12.1163ZM59.5912 21.1837 59.5912 23.4337 45.1463 23.4337 45.1463 21.1837 59.5912 21.1837ZM59.5912 25.6837 59.5912 27.9337 45.1463 27.9337 45.1463 25.6837 59.5912 25.6837ZM59.5912 30.2062 59.5912 32.4562 45.1463 32.4562 45.1463 30.2062 59.5912 30.2062ZM23.6813 30.2062C18.5963 30.2062 14.4787 34.3238 14.4787 39.4088 14.4787 44.4713 18.5963 48.6112 23.6813 48.6112 28.7438 48.6112 32.8837 44.4713 32.8837 39.4088 32.8837 34.3238 28.7438 30.2062 23.6813 30.2062ZM23.6813 46.3612C19.8338 46.3612 16.7287 43.2338 16.7287 39.4088 16.7287 35.5612 19.8338 32.4562 23.6813 32.4562 27.5062 32.4562 30.6337 35.5612 30.6337 39.4088 30.6337 43.2338 27.5062 46.3612 23.6813 46.3612Z" class="MsftOfcThm_Text2_Fill_v2" fill="#165C7D"/></svg>