<svg viewBox="0 0 96 96" xmlns="http://www.w3.org/2000/svg" xmlns:xlink="http://www.w3.org/1999/xlink" id="Icons_Hourglass_M" overflow="hidden"><g id="Icons"><path d="M71.491 16 76 16 76 8 20 8 20 16 24.436 16C26.909 26.917 33.979 41.6 41.764 48.013 33.977 54.422 27.2 68.834 24.8 80L20 80 20 88 76 88 76 80 71.485 80C69.063 69.135 62 54.476 54.136 48.013 62.007 41.544 69.074 26.872 71.491 16ZM22 10 74 10 74 14 22 14ZM74 86 22 86 22 82 28.438 82 28.438 82.023 67.858 82.023 67.853 82 74 82ZM30.933 80C31.9728 75.8786 33.3898 71.8617 35.166 68L60.984 68C62.8101 71.8545 64.2699 75.8722 65.344 80ZM51.914 47.2C51.4658 47.5227 51.3641 48.1477 51.6869 48.5959 51.7498 48.6833 51.8265 48.76 51.914 48.823 59.7 54.437 66.905 69.064 69.443 80L67.4 80C66.2365 75.3677 64.6013 70.8669 62.52 66.568L62.247 66 33.888 66 33.619 66.578C31.5959 70.8824 30.0096 75.3789 28.884 80L26.833 80C29.312 68.976 36.359 54.318 43.983 48.825 44.4312 48.5023 44.5329 47.8773 44.2101 47.4291 44.1472 47.3417 44.0705 47.265 43.983 47.202 36.277 41.649 29.069 27 26.479 16L69.45 16C66.917 26.942 59.714 41.582 51.914 47.2Z"/></g></svg>