<svg viewBox="0 0 96 96" xmlns="http://www.w3.org/2000/svg" xmlns:xlink="http://www.w3.org/1999/xlink" id="Icons_PresentationPieChart_M" overflow="hidden"><g id="Icons"><path d="M84 19C84.5523 19 85 18.5523 85 18 85 17.4477 84.5523 17 84 17L49 17 49 13C49 12.4477 48.5523 12 48 12 47.4477 12 47 12.4477 47 13L47 17 12 17C11.4477 17 11 17.4477 11 18 11 18.5523 11.4477 19 12 19L16 19 16 60 12 60C11.4477 60 11 60.4477 11 61 11 61.5523 11.4477 62 12 62L45.586 62 27.793 79.793C27.4093 80.1903 27.4203 80.8233 27.8176 81.207 28.2051 81.5813 28.8195 81.5813 29.207 81.207L47 63.414 47 84C47 84.5523 47.4477 85 48 85 48.5523 85 49 84.5523 49 84L49 63.414 66.793 81.207C67.1903 81.5907 67.8233 81.5797 68.207 81.1824 68.5813 80.7949 68.5813 80.1805 68.207 79.793L50.414 62 84 62C84.5523 62 85 61.5523 85 61 85 60.4477 84.5523 60 84 60L80 60 80 19ZM78 60 18 60 18 19 78 19Z"/><path d="M33 40C33 48.2843 39.7157 55 48 55 56.2843 55 63 48.2843 63 40 63 31.7157 56.2843 25 48 25 39.7196 25.0094 33.0094 31.7196 33 40ZM50.438 41 60.949 41C60.7404 43.7482 59.6583 46.3576 57.861 48.447L50.431 41.017C50.422 41.008 50.425 41 50.438 41ZM35 40C35.0104 33.2145 40.2349 27.5768 47 27.051L47 40.414 56.447 49.861C51.0111 54.5361 42.8145 53.9193 38.1394 48.4835 36.1097 46.1235 34.9956 43.1127 35 40ZM60.949 39 49 39 49 27.051C55.3816 27.5491 60.4509 32.6184 60.949 39Z"/></g></svg>