<svg width="72" height="72" viewBox="0 0 72 72" xmlns="http://www.w3.org/2000/svg" xmlns:xlink="http://www.w3.org/1999/xlink" id="Gradient" overflow="hidden"><style>
.MsftOfcThm_Background1_Fill_v2 {
 fill:#FFFFFF; 
}
</style>
<defs><linearGradient x1="12.2737" y1="61.6387" x2="59.7825" y2="14.1299" gradientUnits="userSpaceOnUse" id="linear-gradient"><stop offset="0" stop-color="#FF9F00"/><stop offset="0.05089" stop-color="#FE9900"/><stop offset="0.466323" stop-color="#FD7204"/><stop offset="0.797112" stop-color="#FD5907"/><stop offset="1" stop-color="#FD5108"/></linearGradient></defs><path d="M47.6325 14.8499C46.71 13.9275 45.4275 13.3425 44.01 13.3425 41.175 13.3425 38.8575 15.66 38.8575 18.4949 38.8575 19.8675 39.3975 21.1501 40.365 22.1175 41.3325 23.1075 42.615 23.625 43.9875 23.625L44.01 23.625C45.3825 23.625 46.665 23.1075 47.6325 22.1175 48.6225 21.1501 49.1401 19.8675 49.1401 18.4949 49.1401 17.0774 48.555 15.795 47.6325 14.8499ZM46.0574 20.5425C45.4949 21.0825 44.7751 21.375 44.01 21.375L43.9875 21.375C43.2225 21.375 42.5025 21.0825 41.9626 20.5425 41.4001 19.98 41.1075 19.26 41.1075 18.4949 41.1075 16.8975 42.4124 15.5925 44.01 15.5925 45.6075 15.5925 46.8901 16.8975 46.8901 18.4949 46.8901 19.26 46.5975 19.98 46.0574 20.5425ZM47.6325 14.8499C46.71 13.9275 45.4275 13.3425 44.01 13.3425 41.175 13.3425 38.8575 15.66 38.8575 18.4949 38.8575 19.8675 39.3975 21.1501 40.365 22.1175 41.3325 23.1075 42.615 23.625 43.9875 23.625L44.01 23.625C45.3825 23.625 46.665 23.1075 47.6325 22.1175 48.6225 21.1501 49.1401 19.8675 49.1401 18.4949 49.1401 17.0774 48.555 15.795 47.6325 14.8499ZM46.0574 20.5425C45.4949 21.0825 44.7751 21.375 44.01 21.375L43.9875 21.375C43.2225 21.375 42.5025 21.0825 41.9626 20.5425 41.4001 19.98 41.1075 19.26 41.1075 18.4949 41.1075 16.8975 42.4124 15.5925 44.01 15.5925 45.6075 15.5925 46.8901 16.8975 46.8901 18.4949 46.8901 19.26 46.5975 19.98 46.0574 20.5425ZM47.6325 14.8499C46.71 13.9275 45.4275 13.3425 44.01 13.3425 41.175 13.3425 38.8575 15.66 38.8575 18.4949 38.8575 19.8675 39.3975 21.1501 40.365 22.1175 41.3325 23.1075 42.615 23.625 43.9875 23.625L44.01 23.625C45.3825 23.625 46.665 23.1075 47.6325 22.1175 48.6225 21.1501 49.1401 19.8675 49.1401 18.4949 49.1401 17.0774 48.555 15.795 47.6325 14.8499ZM46.0574 20.5425C45.4949 21.0825 44.7751 21.375 44.01 21.375L43.9875 21.375C43.2225 21.375 42.5025 21.0825 41.9626 20.5425 41.4001 19.98 41.1075 19.26 41.1075 18.4949 41.1075 16.8975 42.4124 15.5925 44.01 15.5925 45.6075 15.5925 46.8901 16.8975 46.8901 18.4949 46.8901 19.26 46.5975 19.98 46.0574 20.5425ZM47.6325 14.8499C46.71 13.9275 45.4275 13.3425 44.01 13.3425 41.175 13.3425 38.8575 15.66 38.8575 18.4949 38.8575 19.8675 39.3975 21.1501 40.365 22.1175 41.3325 23.1075 42.615 23.625 43.9875 23.625L44.01 23.625C45.3825 23.625 46.665 23.1075 47.6325 22.1175 48.6225 21.1501 49.1401 19.8675 49.1401 18.4949 49.1401 17.0774 48.555 15.795 47.6325 14.8499ZM46.0574 20.5425C45.4949 21.0825 44.7751 21.375 44.01 21.375L43.9875 21.375C43.2225 21.375 42.5025 21.0825 41.9626 20.5425 41.4001 19.98 41.1075 19.26 41.1075 18.4949 41.1075 16.8975 42.4124 15.5925 44.01 15.5925 45.6075 15.5925 46.8901 16.8975 46.8901 18.4949 46.8901 19.26 46.5975 19.98 46.0574 20.5425ZM47.6325 14.8499C46.71 13.9275 45.4275 13.3425 44.01 13.3425 41.175 13.3425 38.8575 15.66 38.8575 18.4949 38.8575 19.8675 39.3975 21.1501 40.365 22.1175 41.3325 23.1075 42.615 23.625 43.9875 23.625L44.01 23.625C45.3825 23.625 46.665 23.1075 47.6325 22.1175 48.6225 21.1501 49.1401 19.8675 49.1401 18.4949 49.1401 17.0774 48.555 15.795 47.6325 14.8499ZM46.0574 20.5425C45.4949 21.0825 44.7751 21.375 44.01 21.375L43.9875 21.375C43.2225 21.375 42.5025 21.0825 41.9626 20.5425 41.4001 19.98 41.1075 19.26 41.1075 18.4949 41.1075 16.8975 42.4124 15.5925 44.01 15.5925 45.6075 15.5925 46.8901 16.8975 46.8901 18.4949 46.8901 19.26 46.5975 19.98 46.0574 20.5425ZM47.6325 14.8499C46.71 13.9275 45.4275 13.3425 44.01 13.3425 41.175 13.3425 38.8575 15.66 38.8575 18.4949 38.8575 19.8675 39.3975 21.1501 40.365 22.1175 41.3325 23.1075 42.615 23.625 43.9875 23.625L44.01 23.625C45.3825 23.625 46.665 23.1075 47.6325 22.1175 48.6225 21.1501 49.1401 19.8675 49.1401 18.4949 49.1401 17.0774 48.555 15.795 47.6325 14.8499ZM46.0574 20.5425C45.4949 21.0825 44.7751 21.375 44.01 21.375L43.9875 21.375C43.2225 21.375 42.5025 21.0825 41.9626 20.5425 41.4001 19.98 41.1075 19.26 41.1075 18.4949 41.1075 16.8975 42.4124 15.5925 44.01 15.5925 45.6075 15.5925 46.8901 16.8975 46.8901 18.4949 46.8901 19.26 46.5975 19.98 46.0574 20.5425ZM57.375 19.6199 57.375 17.3699 52.875 17.3699C52.6724 15.7275 52.0425 14.2425 51.075 13.0049L54.27 9.80997 52.6724 8.23494 49.4775 11.4075C48.24 10.4626 46.7551 9.80997 45.135 9.60754L45.135 5.10754 42.885 5.10754 42.885 9.60754C41.2425 9.80997 39.7575 10.4626 38.52 11.4075L35.325 8.23494 33.75 9.83249 36.9224 13.0049C35.955 14.2425 35.325 15.7275 35.1225 17.3699L30.6225 17.3699 30.6225 19.6199 35.1225 19.6199C35.325 21.24 35.955 22.7249 36.9224 23.9626L33.75 27.1575 35.325 28.7549 38.52 25.56C39.7575 26.5275 41.2425 27.1575 42.885 27.3599L42.885 31.8825 45.135 31.8825 45.135 27.3599C46.7551 27.1575 48.24 26.5275 49.4775 25.56L52.6724 28.7549 54.27 27.1575 51.075 23.9626C52.0425 22.7249 52.6724 21.24 52.875 19.6199L57.375 19.6199ZM44.01 25.2225 43.9875 25.2225C42.1875 25.2225 40.5 24.5251 39.24 23.2649 37.9575 21.9825 37.26 20.295 37.26 18.4949 37.26 16.6275 38.0251 14.94 39.24 13.7249 40.455 12.4875 42.1425 11.7449 44.01 11.7449 45.81 11.7449 47.4975 12.4424 48.7575 13.7249 50.04 14.9849 50.7375 16.695 50.7375 18.4949 50.7375 22.2075 47.7225 25.2225 44.01 25.2225ZM44.01 13.3425C41.175 13.3425 38.8575 15.6601 38.8575 18.4949 38.8575 19.8675 39.3975 21.1501 40.365 22.1175 41.3325 23.1075 42.615 23.625 43.9875 23.625L44.01 23.625C45.3825 23.625 46.665 23.1075 47.6325 22.1175 48.6225 21.1501 49.1401 19.8675 49.1401 18.4949 49.1401 17.0774 48.555 15.795 47.6325 14.8499 46.71 13.9275 45.4275 13.3425 44.01 13.3425ZM46.0574 20.5425C45.4949 21.0825 44.7751 21.375 44.01 21.375L43.9875 21.375C43.2225 21.375 42.5025 21.0825 41.9626 20.5425 41.4001 19.98 41.1075 19.26 41.1075 18.4949 41.1075 16.8975 42.4124 15.5925 44.01 15.5925 45.6075 15.5925 46.8901 16.8975 46.8901 18.4949 46.8901 19.26 46.5975 19.98 46.0574 20.5425ZM47.6325 14.8499C46.71 13.9275 45.4275 13.3425 44.01 13.3425 41.175 13.3425 38.8575 15.66 38.8575 18.4949 38.8575 19.8675 39.3975 21.1501 40.365 22.1175 41.3325 23.1075 42.615 23.625 43.9875 23.625L44.01 23.625C45.3825 23.625 46.665 23.1075 47.6325 22.1175 48.6225 21.1501 49.1401 19.8675 49.1401 18.4949 49.1401 17.0774 48.555 15.795 47.6325 14.8499ZM46.0574 20.5425C45.4949 21.0825 44.7751 21.375 44.01 21.375L43.9875 21.375C43.2225 21.375 42.5025 21.0825 41.9626 20.5425 41.4001 19.98 41.1075 19.26 41.1075 18.4949 41.1075 16.8975 42.4124 15.5925 44.01 15.5925 45.6075 15.5925 46.8901 16.8975 46.8901 18.4949 46.8901 19.26 46.5975 19.98 46.0574 20.5425ZM47.6325 14.8499C46.71 13.9275 45.4275 13.3425 44.01 13.3425 41.175 13.3425 38.8575 15.66 38.8575 18.4949 38.8575 19.8675 39.3975 21.1501 40.365 22.1175 41.3325 23.1075 42.615 23.625 43.9875 23.625L44.01 23.625C45.3825 23.625 46.665 23.1075 47.6325 22.1175 48.6225 21.1501 49.1401 19.8675 49.1401 18.4949 49.1401 17.0774 48.555 15.795 47.6325 14.8499ZM46.0574 20.5425C45.4949 21.0825 44.7751 21.375 44.01 21.375L43.9875 21.375C43.2225 21.375 42.5025 21.0825 41.9626 20.5425 41.4001 19.98 41.1075 19.26 41.1075 18.4949 41.1075 16.8975 42.4124 15.5925 44.01 15.5925 45.6075 15.5925 46.8901 16.8975 46.8901 18.4949 46.8901 19.26 46.5975 19.98 46.0574 20.5425ZM47.6325 14.8499C46.71 13.9275 45.4275 13.3425 44.01 13.3425 41.175 13.3425 38.8575 15.66 38.8575 18.4949 38.8575 19.8675 39.3975 21.1501 40.365 22.1175 41.3325 23.1075 42.615 23.625 43.9875 23.625L44.01 23.625C45.3825 23.625 46.665 23.1075 47.6325 22.1175 48.6225 21.1501 49.1401 19.8675 49.1401 18.4949 49.1401 17.0774 48.555 15.795 47.6325 14.8499ZM46.0574 20.5425C45.4949 21.0825 44.7751 21.375 44.01 21.375L43.9875 21.375C43.2225 21.375 42.5025 21.0825 41.9626 20.5425 41.4001 19.98 41.1075 19.26 41.1075 18.4949 41.1075 16.8975 42.4124 15.5925 44.01 15.5925 45.6075 15.5925 46.8901 16.8975 46.8901 18.4949 46.8901 19.26 46.5975 19.98 46.0574 20.5425ZM47.6325 14.8499C46.71 13.9275 45.4275 13.3425 44.01 13.3425 41.175 13.3425 38.8575 15.66 38.8575 18.4949 38.8575 19.8675 39.3975 21.1501 40.365 22.1175 41.3325 23.1075 42.615 23.625 43.9875 23.625L44.01 23.625C45.3825 23.625 46.665 23.1075 47.6325 22.1175 48.6225 21.1501 49.1401 19.8675 49.1401 18.4949 49.1401 17.0774 48.555 15.795 47.6325 14.8499ZM46.0574 20.5425C45.4949 21.0825 44.7751 21.375 44.01 21.375L43.9875 21.375C43.2225 21.375 42.5025 21.0825 41.9626 20.5425 41.4001 19.98 41.1075 19.26 41.1075 18.4949 41.1075 16.8975 42.4124 15.5925 44.01 15.5925 45.6075 15.5925 46.8901 16.8975 46.8901 18.4949 46.8901 19.26 46.5975 19.98 46.0574 20.5425ZM35.415 34.2449C35.5051 33.5474 35.46 32.8274 35.28 32.1299L37.215 31.185 36.2475 29.16 34.3125 30.105C33.8625 29.52 33.3225 29.0474 32.715 28.6875L33.4124 26.6624 31.2974 25.92 30.5776 27.945C29.8801 27.855 29.16 27.8775 28.4626 28.0574L27.54 26.145 25.5151 27.1125 26.4375 29.0474C25.8525 29.4749 25.3801 30.0374 25.02 30.645L22.9949 29.925 22.2525 32.0625 24.2775 32.76C24.1875 33.4575 24.2325 34.1775 24.4124 34.8975L22.4775 35.82 23.4675 37.845 25.425 36.9001C25.875 37.4626 26.3699 37.9575 26.9775 38.3174L26.28 40.365 28.395 41.085 29.115 39.0149C29.3625 39.06 29.6099 39.1275 29.8575 39.1275 30.3074 39.1275 30.78 39.06 31.23 38.9475L32.1525 40.8825 34.2 39.8925 33.2551 37.98C33.8176 37.53 34.3125 36.99 34.6724 36.3825L36.6975 37.08 37.44 34.965 35.415 34.2449ZM33.03 34.605C32.7375 35.46 32.1301 36.135 31.32 36.54 30.51 36.9224 29.5876 36.99 28.7325 36.675 27.9001 36.3825 27.2026 35.7751 26.82 34.965 26.01 33.3 26.7075 31.2751 28.3725 30.4875 28.845 30.24 29.34 30.1501 29.835 30.1501 31.095 30.1501 32.2874 30.8475 32.8725 32.04 33.2775 32.8499 33.3225 33.7725 33.03 34.605ZM63.0225 49.95 63.0225 17.3699 60.7725 17.3699 60.7725 44.325 11.2275 44.325 11.2275 19.6199 27.2475 19.6199 27.2475 17.3699 8.97748 17.3699 8.97748 55.575 29.1824 55.575 29.1824 60.1199 21.3975 60.1199 17.5275 66.8925 54.585 66.8925 50.7375 60.1199 42.7275 60.1199 42.7275 55.575 61.7175 55.575 63.0225 53.325 11.2275 53.325 11.2275 46.575 60.7725 46.575 60.7725 49.95 63.0225 49.95ZM49.4324 62.3699 50.715 64.6425 21.3975 64.6425 22.7026 62.3699 49.4324 62.3699ZM31.4324 55.575 40.4775 55.575 40.4775 60.075 31.4324 60.075 31.4324 55.575Z" class="MsftOfcThm_Background1_Fill_v2" fill="#FFFFFF"/></svg>