<svg width="72" height="72" viewBox="0 0 72 72" xmlns="http://www.w3.org/2000/svg" xmlns:xlink="http://www.w3.org/1999/xlink" id="Gradient" overflow="hidden"><style>
.MsftOfcThm_Background1_Fill_v2 {
 fill:#FFFFFF; 
}
</style>
<defs><linearGradient x1="13.4515" y1="56.8877" x2="60.4202" y2="9.91895" gradientUnits="userSpaceOnUse" id="linear-gradient"><stop offset="0" stop-color="#FF9F00"/><stop offset="0.05089" stop-color="#FE9900"/><stop offset="0.466323" stop-color="#FD7204"/><stop offset="0.797112" stop-color="#FD5907"/><stop offset="1" stop-color="#FD5108"/></linearGradient></defs><path d="M67.32 35.2237 67.32 16.8188 14.265 16.8188 14.265 24.0862 4.67997 24.0862 4.67997 48.1162 37.3951 48.1162 38.7 45.8662 6.92997 45.8662 6.92997 26.3362 55.485 26.3362 55.485 34.2112C49.815 32.7712 40.8825 34.0312 40.8825 37.9912 40.8825 38.8012 41.31 39.4988 41.9625 40.1062 41.3775 40.6238 41.0175 41.2537 40.95 41.9737 40.9274 42.0412 40.8825 42.1087 40.8825 42.1987 40.8825 43.0537 41.3549 43.7962 42.075 44.4038 41.3549 45.0112 40.8825 45.7312 40.8825 46.5862 40.8825 47.1037 41.085 47.5537 41.3549 47.9812L41.2875 48.1162 41.445 48.1162C41.58 48.3188 41.7375 48.4988 41.9174 48.6787 41.2875 49.2637 40.8825 49.9387 40.8825 50.7488 40.8825 53.6513 45.7199 55.1812 50.4899 55.1812 55.2375 55.1812 60.075 53.6513 60.075 50.7488 60.075 49.9387 59.67 49.2637 59.04 48.6787 59.67 48.0937 60.075 47.3962 60.075 46.5862 60.075 45.7312 59.6025 45.0112 58.8825 44.4038 59.6025 43.7962 60.075 43.0537 60.075 42.1987 60.075 41.7038 59.8951 41.2537 59.6249 40.8487L66.015 40.8487 67.32 38.5987 59.94 38.5987C59.985 38.3962 60.075 38.1938 60.075 37.9912 60.075 36.7312 59.1525 35.7637 57.735 35.0437L57.735 24.0862 16.515 24.0862 16.515 19.0688 65.07 19.0688 65.07 35.2237 67.32 35.2237ZM50.4899 52.9312C45.7199 52.9312 43.1325 51.3787 43.1325 50.7488 43.1325 50.5462 43.4474 50.2312 43.9875 49.9162 45.7875 50.6362 48.1275 51.0188 50.4899 51.0188 52.83 51.0188 55.1925 50.6362 56.9699 49.9162 57.5099 50.2312 57.825 50.5462 57.825 50.7488 57.825 51.3787 55.2599 52.9312 50.4899 52.9312ZM50.4899 48.7688C45.7199 48.7688 43.1325 47.2163 43.1325 46.5862 43.1325 46.3613 43.515 45.9787 44.235 45.6187 45.9899 46.2712 48.2399 46.6313 50.4899 46.6313 52.7176 46.6313 54.9676 46.2712 56.7225 45.6187 57.4425 45.9787 57.825 46.3613 57.825 46.5862 57.825 47.2163 55.2599 48.7688 50.4899 48.7688ZM50.4899 44.3813C45.7199 44.3813 43.1325 42.8288 43.1325 42.1987 43.1325 41.9963 43.4699 41.6587 44.0324 41.3437 45.8326 42.0412 48.15 42.4013 50.4899 42.4013 52.8075 42.4013 55.1249 42.0412 56.925 41.3437 57.5099 41.6587 57.825 41.9963 57.825 42.1987 57.825 42.8288 55.2599 44.3813 50.4899 44.3813ZM57.825 37.9912C57.825 38.6213 55.2599 40.1513 50.4899 40.1513 45.7199 40.1513 43.1325 38.6213 43.1325 37.9912 43.1325 37.3613 45.7199 35.8088 50.4899 35.8088 55.2599 35.8088 57.825 37.3613 57.825 37.9912ZM26.9714 39.9309C27.356 40.3418 27.8328 40.6011 28.4041 40.7131L28.4041 36.8262C28.3403 36.802 28.2568 36.7734 28.1514 36.7427 28.0459 36.7119 27.9316 36.6833 27.8086 36.6592 27.3494 36.5361 26.8967 36.3889 26.4507 36.2219 26.0046 36.0549 25.6047 35.8308 25.251 35.554 24.8972 35.2749 24.616 34.9277 24.405 34.5125 24.1941 34.0972 24.0886 33.5786 24.0886 32.959 24.0886 32.3262 24.2095 31.7703 24.4512 31.2869 24.6929 30.8013 25.0137 30.397 25.4092 30.0674 25.8069 29.74 26.2639 29.4851 26.7847 29.3049 27.3054 29.127 27.8459 29.0171 28.4041 28.9797L28.4041 27.5493 29.5005 27.5493 29.5005 28.9797C30.0586 29.0413 30.5815 29.1643 31.0715 29.3423 31.5615 29.5225 31.9922 29.7708 32.3635 30.0872 32.7349 30.4036 33.0381 30.7969 33.2754 31.2671 33.5105 31.7395 33.6467 32.2954 33.6841 32.9414L31.043 32.9414C31.032 32.4448 30.876 32.0229 30.5793 31.6758 30.2805 31.3286 29.9224 31.155 29.5005 31.155L29.5005 34.4465C29.6499 34.4839 29.8015 34.5212 29.9553 34.5586 30.1113 34.5959 30.2739 34.6399 30.4475 34.6882 31.366 34.9365 32.0713 35.2441 32.5679 35.6089 33.0645 35.9736 33.4292 36.356 33.6643 36.7515 33.8994 37.1492 34.04 37.5447 34.084 37.9424 34.1257 38.3401 34.1477 38.6917 34.1477 39.0015 34.1477 39.2739 34.0796 39.6189 33.9434 40.0342 33.8071 40.4495 33.5632 40.856 33.2095 41.2515 32.8557 41.6492 32.3811 42.0029 31.7878 42.3127 31.1924 42.6204 30.4299 42.8071 29.5005 42.8687L29.5005 44.4507 28.4041 44.4507 28.4041 42.8687C27.0154 42.7698 25.9299 42.3435 25.1499 41.5876 24.3677 40.8296 23.915 39.7222 23.792 38.2588L26.4133 38.2588C26.4001 38.9641 26.5869 39.5222 26.9714 39.9309ZM27.7888 31.2495C27.5911 31.311 27.4109 31.4077 27.2505 31.5374 27.0901 31.667 26.9626 31.8274 26.8682 32.0208 26.7759 32.2119 26.7297 32.4382 26.7297 32.6997 26.7297 33.1084 26.8594 33.4248 27.1208 33.6467 27.3801 33.8708 27.8086 34.051 28.4041 34.1873L28.4041 31.155C28.1931 31.155 27.9888 31.1858 27.7888 31.2495ZM30.197 40.5549C30.4387 40.4736 30.6562 40.3594 30.8474 40.21 31.0408 40.0627 31.199 39.8782 31.322 39.6628 31.4451 39.4453 31.5088 39.1882 31.5088 38.8916 31.5088 38.406 31.3572 38.0435 31.0518 37.8018 30.7485 37.5601 30.2322 37.3403 29.5005 37.1426L29.5005 40.7131C29.7224 40.689 29.9553 40.6362 30.197 40.5549Z" class="MsftOfcThm_Background1_Fill_v2" fill="#FFFFFF"/></svg>