<svg viewBox="0 0 96 96" xmlns="http://www.w3.org/2000/svg" xmlns:xlink="http://www.w3.org/1999/xlink" id="Icons_Statistics_LTR_M" overflow="hidden"><g id="Icons"><path d="M16.029 15 14.029 15 14.029 83 82 83 82 81 16.029 81 16.029 15Z"/><path d="M29.03 72C31.2325 72.0044 33.0216 70.2225 33.026 68.02 33.0285 66.7616 32.4369 65.5758 31.43 64.821L40.11 37.992C40.6863 37.9784 41.2527 37.8395 41.77 37.585L57.1 49.266C56.6886 51.4365 58.1146 53.5295 60.285 53.941 62.4555 54.3524 64.5486 52.9264 64.96 50.7559 65.0073 50.5068 65.0307 50.2536 65.03 50 65.027 48.7847 64.4681 47.6375 63.513 46.886L70.752 25.972C70.846 25.979 70.935 26 71.03 26 73.2469 26.0077 75.0502 24.2169 75.058 22 75.0657 19.7832 73.2749 17.9798 71.058 17.972 68.8412 17.9643 67.0378 19.7552 67.03 21.972 67.0253 23.3333 67.7108 24.6043 68.851 25.348L61.68 46.065C61.4654 46.026 61.2481 46.0043 61.03 46 59.8559 46.0031 58.7433 46.5255 57.991 47.427L43.33 36.257C44.5904 34.438 44.1376 31.9416 42.3186 30.6812 40.4995 29.4208 38.0032 29.8737 36.7428 31.6927 35.4824 33.5117 35.9352 36.0081 37.7542 37.2685 37.886 37.3598 38.0232 37.4431 38.165 37.518L29.579 64.055C27.3958 63.7476 25.3768 65.2682 25.0694 67.4514 24.762 69.6346 26.2826 71.6536 28.4658 71.961 28.6527 71.9873 28.8413 72.0004 29.03 72Z"/></g></svg>