<svg viewBox="0 0 32 32" xmlns="http://www.w3.org/2000/svg" xmlns:xlink="http://www.w3.org/1999/xlink" id="Artwork" overflow="hidden"><style>
.MsftOfcThm_Text2_Fill_v2 {
 fill:#165C7D; 
}
.MsftOfcThm_Text1_Stroke_v2 {
 stroke:#404040; 
}
</style>
<path d="M11.0717 21 13.3815 21 8.4805 29.4888 6.7481 28.4888 11.0718 21ZM27 11C27 15.9624 22.9624 20 18 20 13.0376 20 9 15.9624 9 11 9 6.0376 13.0376 2 18 2 22.9624 2 27 6.0376 27 11ZM25 11C25 7.1401 21.8594 4 18 4 14.1406 4 11 7.1401 11 11 11 14.8599 14.1406 18 18 18 21.8594 18 25 14.8599 25 11Z" class="MsftOfcThm_Text2_Fill_v2 MsftOfcThm_Text1_Stroke_v2" stroke="#404040" fill="#165C7D"/></svg>