<svg width="72" height="72" viewBox="0 0 72 72" xmlns="http://www.w3.org/2000/svg" xmlns:xlink="http://www.w3.org/1999/xlink" id="Gradient" overflow="hidden"><style>
.MsftOfcThm_Text2_Fill_v2 {
 fill:#165C7D; 
}
</style>
<defs><linearGradient x1="6.75" y1="65.25" x2="65.25" y2="6.75" gradientUnits="userSpaceOnUse" id="linear-gradient"><stop offset="0" stop-color="#FF9F00"/><stop offset="0.05089" stop-color="#FE9900"/><stop offset="0.466323" stop-color="#FD7204"/><stop offset="0.797112" stop-color="#FD5907"/><stop offset="1" stop-color="#FD5108"/></linearGradient></defs><path d="M25.37 11.25 23.7946 13.5 2.25 13.5 2.25 11.25 25.37 11.25ZM2.25 27 2.25 29.25 46.3505 29.25 47.9259 27 2.25 27ZM2.25 42.75 2.25 45 6.97563 45 8.55107 42.75 2.25 42.75ZM69.75 42.75 69.75 45 25.7613 45C25.2219 48.1858 22.462 50.625 19.125 50.625 18.0898 50.625 17.1199 50.3718 16.2423 49.9536L13.4081 54 10.662 54 14.3909 48.676C13.5364 47.8334 12.9256 46.7586 12.6146 45.5625 12.4736 45.0199 12.375 44.4611 12.375 43.875 12.375 43.2889 12.4736 42.7301 12.6146 42.1875 13.3693 39.2844 15.989 37.125 19.125 37.125 22.462 37.125 25.2219 39.5642 25.7613 42.75L69.75 42.75ZM19.125 39.375C16.6443 39.375 14.625 41.3943 14.625 43.875 14.625 46.3557 16.6443 48.375 19.125 48.375 21.6057 48.375 23.625 46.3557 23.625 43.875 23.625 41.3943 21.6057 39.375 19.125 39.375ZM2.25 58.5 2.25 60.75 27.2254 60.75 28.8008 58.5 2.25 58.5ZM26.9451 23.3481 27 23.3867 27 23.2697 26.9451 23.3481ZM42.6363 11.25 69.75 11.25 69.75 13.5 42.6363 13.5C42.0969 16.6858 39.337 19.125 36 19.125 34.965 19.125 33.995 18.8718 33.1175 18.4537L30.2846 22.5 27.5389 22.5 31.266 17.1762C30.4114 16.3336 29.8006 15.2586 29.4896 14.0625 29.3486 13.5199 29.25 12.9611 29.25 12.375 29.25 11.7889 29.3486 11.2301 29.4896 10.6875 30.2443 7.78436 32.864 5.625 36 5.625 39.337 5.625 42.0969 8.06424 42.6363 11.25ZM36 7.875C33.5193 7.875 31.5 9.89429 31.5 12.375 31.5 14.8557 33.5193 16.875 36 16.875 38.4807 16.875 40.5 14.8557 40.5 12.375 40.5 9.89429 38.4807 7.875 36 7.875ZM51.9896 26.4375C52.7443 23.5344 55.364 21.375 58.5 21.375 61.837 21.375 64.5969 23.8142 65.1363 27L69.75 27 69.75 29.25 65.1363 29.25C64.5969 32.4358 61.837 34.875 58.5 34.875 57.4648 34.875 56.4949 34.6218 55.6173 34.2036L52.7838 38.25 50.0376 38.25 53.7659 32.9262C52.9114 32.0835 52.3006 31.0086 51.9896 29.8125 51.8486 29.2699 51.75 28.7111 51.75 28.125 51.75 27.5389 51.8486 26.9801 51.9896 26.4375ZM54 28.125C54 30.6057 56.0193 32.625 58.5 32.625 60.9807 32.625 63 30.6057 63 28.125 63 25.6443 60.9807 23.625 58.5 23.625 56.0193 23.625 54 25.6443 54 28.125ZM32.8646 57.9375C33.6193 55.0344 36.239 52.875 39.375 52.875 42.712 52.875 45.4719 55.3142 46.0113 58.5L69.75 58.5 69.75 60.75 46.0113 60.75C45.4719 63.9358 42.712 66.375 39.375 66.375 38.34 66.375 37.37 66.1219 36.4925 65.7037L33.6592 69.75 30.9133 69.75 34.641 64.4262C33.7865 63.5835 33.1756 62.5086 32.8646 61.3125 32.7236 60.7699 32.625 60.2111 32.625 59.625 32.625 59.0389 32.7236 58.4801 32.8646 57.9375ZM34.875 59.625C34.875 62.1057 36.8943 64.125 39.375 64.125 41.8557 64.125 43.875 62.1057 43.875 59.625 43.875 57.1443 41.8557 55.125 39.375 55.125 36.8943 55.125 34.875 57.1443 34.875 59.625Z" class="MsftOfcThm_Text2_Fill_v2" fill="#165C7D"/></svg>