<svg width="101" height="31" viewBox="0 0 101 31" fill="none" xmlns="http://www.w3.org/2000/svg">
<g clip-path="url(#clip0_875_1984)">
<path d="M5.99902 25.5011C6.72945 25.5011 7.5165 25.7959 8.00345 26.2551L8.08838 26.3344L8.81881 25.6768L8.71123 25.5861C7.94683 24.9399 6.95594 24.5657 5.99336 24.5657C4.11349 24.5657 2.64697 25.9773 2.64697 27.78C2.64697 29.5827 4.13048 31.0056 6.02733 31.0056C6.97859 31.0056 8.0261 30.6542 8.76219 30.0873L8.80749 30.0533V27.4002H5.9424V28.3412H7.85057V29.5544C7.4259 29.8662 6.74077 30.0703 6.07263 30.0703C4.52117 30.0703 3.70581 28.9251 3.70581 27.7914C3.70581 26.5102 4.71369 25.5068 5.99902 25.5068" fill="#202B46"/>
<path d="M14.1014 27.5079H11.5647V25.6542H13.9032C14.3505 25.6542 14.6336 25.7506 14.8601 25.9773C15.0187 26.1474 15.1036 26.3571 15.1036 26.5782C15.1036 27.0998 14.662 27.5136 14.1014 27.5136M16.1228 26.5896C16.1228 26.119 15.9529 25.6882 15.6359 25.3537C15.2282 24.9286 14.662 24.7188 13.8975 24.7188H10.5342V30.8526H11.5647V28.4546H13.7673L15.1206 30.8526H16.2983L14.8205 28.3072C15.6302 28.0295 16.1285 27.3832 16.1285 26.5952" fill="#202B46"/>
<path d="M19.2883 28.2052L20.2906 25.9943L21.2928 28.2052H19.294H19.2883ZM19.8659 24.7131L17.0234 30.8469H18.1049L18.8976 29.0782H21.6778L22.4818 30.8469H23.6086L20.7662 24.7131H19.8715H19.8659Z" fill="#202B46"/>
<path d="M29.0836 29.0215L25.5164 24.7131H24.6274V30.8469H25.6523V26.5329L29.2195 30.8469H30.1142V24.7131H29.0836V29.0215Z" fill="#202B46"/>
<path d="M36.2522 29.3673C35.8785 29.6848 35.5501 29.9059 34.7178 29.9059H33.0361V25.6485H34.7178C35.5048 25.6485 35.8729 25.8469 36.2692 26.2041C36.6543 26.5952 36.8638 27.1508 36.8638 27.7687C36.8638 28.3866 36.6373 28.9705 36.2522 29.3617M34.7461 24.7075H32.0112V30.8412H34.7461C35.8955 30.8412 36.4731 30.5295 37.028 30.0306C37.5999 29.475 37.9283 28.653 37.9283 27.7687C37.9283 26.8843 37.6225 26.1247 37.0676 25.5635C36.4278 24.9569 35.754 24.7075 34.7404 24.7075" fill="#202B46"/>
<path d="M46.3594 24.7131L44.2077 29.5034L42.0391 24.7131H40.8896L43.7378 30.8469H44.6267L47.4805 24.7131H46.3594Z" fill="#202B46"/>
<path d="M49.2415 28.2052L50.238 25.9943L51.2402 28.2052H49.2415ZM49.819 24.7131L46.9766 30.8469H48.058L48.8508 29.0782H51.6309L52.435 30.8469H53.5617L50.7193 24.7131H49.8247H49.819Z" fill="#202B46"/>
<path d="M59.405 29.1066C58.8162 29.7132 58.0178 30.059 57.2024 30.059C55.8888 30.059 54.9036 29.0783 54.9036 27.7801C54.9036 26.4819 55.8831 25.4955 57.1798 25.4955C57.9272 25.4955 58.7199 25.8016 59.2408 26.3005L59.3258 26.3798L60.0336 25.6826L59.9373 25.5975C59.2352 24.9456 58.199 24.5544 57.1628 24.5544C55.2999 24.5544 53.8447 25.966 53.8447 27.7687C53.8447 29.5715 55.2886 30.9944 57.2024 30.9944C58.6633 30.9944 59.6485 30.2404 60.1072 29.7869L60.1978 29.7018L59.4956 29.0159L59.4107 29.1066H59.405Z" fill="#202B46"/>
<path d="M62.8928 28.2052L63.8894 25.9943L64.8916 28.2052H62.8928ZM63.4704 24.7131L60.6279 30.8469H61.7094L62.5021 29.0782H65.2823L66.0863 30.8469H67.2131L64.3707 24.7131H63.476H63.4704Z" fill="#202B46"/>
<path d="M66.6074 25.6542H68.895V30.8469H69.9198V25.6542H72.2017V24.7131H66.6074V25.6542Z" fill="#202B46"/>
<path d="M74.2512 24.7131H73.2207V30.8469H74.2512V24.7131Z" fill="#202B46"/>
<path d="M78.9226 30.059C77.6203 30.059 76.6011 29.0499 76.6011 27.7631C76.6011 26.4762 77.6203 25.4955 78.9226 25.4955C80.225 25.4955 81.2611 26.5102 81.2611 27.7631C81.2611 29.0159 80.2363 30.059 78.9226 30.059ZM78.9226 24.5601C77.0258 24.5601 75.5366 25.9717 75.5366 27.7687C75.5366 29.5658 77.0201 31.0057 78.9226 31.0057C80.8252 31.0057 82.3256 29.5545 82.3256 27.7687C82.3256 25.983 80.8025 24.5601 78.9226 24.5601Z" fill="#202B46"/>
<path d="M88.2826 29.0215L84.7154 24.7131H83.8208V30.8469H84.8513V26.5329L88.4185 30.8469H89.3075V24.7131H88.2826V29.0215Z" fill="#202B46"/>
<path d="M93.7975 27.0885H93.6899C92.6367 27.0261 91.9459 26.9411 91.9459 26.3628C91.9459 25.7109 92.6764 25.4728 93.3558 25.4728C94.5789 25.4728 95.2697 26.0057 95.4565 26.1701L95.5471 26.2551L96.1813 25.5238L96.085 25.4445C95.5641 25.0193 94.5845 24.5601 93.3841 24.5601C92.1837 24.5601 90.9211 25.0533 90.9211 26.4309C90.9211 27.9048 92.4838 28.0068 93.7465 28.0862C94.9073 28.1712 95.5301 28.347 95.5301 29.0556C95.5301 29.8152 94.6468 30.0873 93.8258 30.0873C92.5575 30.0873 91.7647 29.4864 91.2778 29.0386L91.1872 28.9535L90.5474 29.6792L90.638 29.7585C91.5496 30.5919 92.5858 31 93.8088 31C95.5301 31 96.5607 30.2347 96.5607 28.9592C96.5607 27.2812 94.828 27.1622 93.7975 27.0885Z" fill="#202B46"/>
<path d="M37.6565 6.68591H33.4551V7.45689L34.5422 7.61562V17.8594L33.4551 18.0181V18.7891H38.7379V18.0181L37.6565 17.8594V6.68591Z" fill="#202B46"/>
<path d="M25.4429 2.62701L26.6829 2.78574V9.18597H19.3333V2.78574L20.4714 2.62701V1.77667H14.8262V2.62701L15.9586 2.78574V17.7574L14.8262 17.9161V18.7891H20.4714V17.9161L19.3333 17.7574V10.9433H26.6829V17.7574L25.4429 17.9161V18.7891H31.19V17.9161L30.0293 17.7574V2.78574L31.19 2.62701V1.77667H25.4429V2.62701Z" fill="#202B46"/>
<path d="M45.238 1.26074H41.0366V2.03739L42.0955 2.19045V17.8594L41.0366 18.0181V18.7891H46.3195V18.0181L45.238 17.8594V1.26074Z" fill="#202B46"/>
<path d="M36.2181 4.84921C37.2712 4.84921 38.047 3.99887 38.047 2.85941C38.047 1.85034 37.2712 1 36.2181 1C35.1649 1 34.3892 1.85601 34.3892 2.93878C34.3892 4.02154 35.1366 4.84921 36.2181 4.84921Z" fill="#202B46"/>
<path d="M52.7406 15.0193V7.81973H55.5773V6.68028H52.7406V3.22223L49.6716 4.15193V6.68028H47.3784V7.81973H49.5924V15.7166C49.5924 17.8311 50.1586 18.9422 52.582 18.9422C53.6635 18.9422 54.9545 18.7098 56.472 18.1655V17.3379C55.9567 17.4683 55.4188 17.4683 54.796 17.4683C53.1199 17.4683 52.7349 16.873 52.7349 15.0136" fill="#202B46"/>
<path d="M83.2996 17.8594V10.5805C83.2996 7.84243 82.2408 6.44788 79.8683 6.44788C78.0904 6.44788 76.8277 7.30389 75.5141 8.35831V6.6803H71.29V7.53064L72.3715 7.68937V17.8594L71.29 18.0125V18.7891H76.6012V18.0125L75.5197 17.8594V9.21432C76.2898 8.6701 77.3486 8.20525 78.0168 8.20525C79.4606 8.20525 80.1571 9.05559 80.1571 10.9717V17.8594L79.1039 18.0125V18.7891H84.3868V18.0125L83.3053 17.8594H83.2996Z" fill="#202B46"/>
<path d="M63.3063 18.2222C61.5283 18.2222 60.3959 16.6236 60.3959 12.7744C60.3959 8.92519 61.5283 7.27553 63.3063 7.27553C65.0842 7.27553 66.2733 8.95354 66.2733 12.7744C66.2733 16.5953 65.2201 18.2222 63.3063 18.2222ZM63.4365 6.34583C59.4673 6.34583 56.9419 8.95353 56.9419 12.8538C56.9419 17.5023 59.3936 19.1519 63.2326 19.1519C67.0716 19.1519 69.7272 16.6236 69.7272 12.8538C69.7272 8.69843 67.3548 6.34583 63.4365 6.34583Z" fill="#202B46"/>
</g>
<defs>
<clipPath id="clip0_875_1984">
<rect width="93.9252" height="30" fill="white" transform="translate(2.64111 1)"/>
</clipPath>
</defs>
</svg>